<svg width="222" height="288" viewBox="0 0 222 288" fill="none" xmlns="http://www.w3.org/2000/svg">
<path d="M135.387 52.8164C161.519 69.1255 189.388 82.4677 218.479 92.5949C219.572 155.21 192.352 214.975 144.398 255.252L108.33 285.547L78.0239 259.666C30.1514 218.784 2.11092 159.334 1.01224 96.3908L4.13849 95.2042C31.4391 84.8468 57.4554 71.3779 81.6714 55.0628L109.233 36.493L135.387 52.8164ZM84.5159 58.4365C60.2911 74.7772 34.2618 88.2693 6.94506 98.645L5.75065 99.0986C6.80331 159.405 33.6503 216.371 79.4936 255.568L108.444 280.32L142.903 251.342C188.825 212.725 214.885 155.458 213.838 95.4664C186.002 85.7635 159.336 72.9828 134.337 57.3608L109.303 41.7172L84.5159 58.4365Z" fill="black"/>
<path d="M166 62.6038C142.735 50.5016 109 27.1038 109 27.1038C109 27.1038 77.0736 50.3697 55 62.6038C34.8293 73.7832 1.5 87.6038 1.5 87.6038V59.1038C1.5 59.1038 34.8716 44.8551 55 34.1038C77.1665 22.2638 109 0.60376 109 0.60376C109 0.60376 142.904 23.4018 166 35.6038C185.39 45.8476 217 59.1038 217 59.1038V85.1038C217 85.1038 185.312 72.6499 166 62.6038Z" fill="black" stroke="black"/>
<path d="M141.718 70.6038L167.947 122.538L141.527 244.604H76.4727L50.0518 122.538L76.2822 70.6038H141.718ZM77.7275 76.7161L56.0977 121.973L55.9521 122.277L56.0205 122.608L80.0205 238.264L80.1865 239.061H137.813L137.979 238.264L161.979 122.608L162.048 122.277L161.902 121.973L140.272 76.7161L140.001 76.1467H77.999L77.7275 76.7161ZM138.739 78.1467L159.951 122.53L136.186 237.061H81.8145L58.0479 122.53L79.2607 78.1467H138.739Z" stroke="black" stroke-width="2"/>
</svg>
